<?xml version="1.0" encoding="utf-8"?>
<svg xmlns="http://www.w3.org/2000/svg" xmlns:xlink="http://www.w3.org/1999/xlink" style="margin: auto; background: none; display: block; z-index: 1; position: relative; shape-rendering: auto;" width="2938" height="1558" preserveAspectRatio="xMidYMid" viewBox="0 0 2938 1558">
<g transform=""><g transform="translate(2281.516399225922,148.74767672864448) scale(100)" opacity="0.9">
  <path d="M9.974509999999999 0 C9.974509999999999 2.36509 10.355044403928844 3.2475169777634614 9.172499403928844 5.295744999999999 S7.035483022236538 7.45563405030192 4.987255 8.63817905030192 S2.3650900000000004 10.59149 6.4854171633506e-16 10.59149 S-2.9390269777634597 9.82072405030192 -4.9872549999999976 8.63817905030192 S-7.9899544039288415 7.343973022236542 -9.172499403928843 5.295745000000004 S-9.974509999999999 2.3650900000000012 -9.974509999999999 1.2215251744563264e-15 S-10.355044403928845 -3.247516977763459 -9.172499403928846 -5.2957449999999975 S-7.035483022236541 -7.455634050301917 -4.987255000000004 -8.638179050301918 S-2.3650900000000017 -10.59149 -1.94562514900518e-15 -10.59149 S2.9390269777634543 -9.820724050301923 4.987254999999993 -8.638179050301924 S7.98995440392884 -7.343973022236542 9.17249940392884 -5.295745000000005 S9.974509999999999 -2.3650900000000026 9.974509999999999 -2.4430503489126527e-15" fill="#f6e938" stroke-width="0" transform="rotate(32.495)">
    <animateTransform attributeName="transform" type="rotate" dur="20s" repeatCount="indefinite" values="0;60"></animateTransform>
  </path>
</g><g transform="translate(2444.019679071107,22.697212074373397) scale(100)" opacity="0.9">
  <path d="M11.969411999999997 0 C11.969411999999997 2.838107999999999 12.42605328471461 3.897020373316153 11.006999284714611 6.354893999999998 S8.442579626683845 8.946760860362303 5.984705999999999 10.365814860362303 S2.838108 12.709787999999998 7.782500596020719e-16 12.709787999999998 S-3.5268323733161506 11.784868860362302 -5.984705999999996 10.365814860362303 S-9.587945284714609 8.812767626683847 -11.00699928471461 6.354894000000003 S-11.969411999999997 2.8381080000000005 -11.969411999999997 1.4658302093475915e-15 S-12.426053284714612 -3.89702037331615 -11.006999284714613 -6.354893999999995 S-8.442579626683848 -8.9467608603623 -5.984706000000004 -10.3658148603623 S-2.8381080000000014 -12.709787999999998 -2.3347501788062155e-15 -12.709787999999998 S3.5268323733161444 -11.784868860362305 5.98470599999999 -10.365814860362308 S9.587945284714607 -8.812767626683849 11.006999284714608 -6.354894000000004 S11.969411999999997 -2.8381080000000023 11.969411999999997 -2.931660418695183e-15" fill="#fad92c" stroke-width="0" transform="rotate(4.99005)">
    <animateTransform attributeName="transform" type="rotate" dur="10s" repeatCount="indefinite" values="0;60"></animateTransform>
  </path>
</g><g transform="translate(2834.0275506995495,-279.8239030958771) scale(100)" opacity="0.9">
  <path d="M16.757176799999996 0 C16.757176799999996 3.973351199999999 17.396474598600456 5.455828522642613 15.409798998600456 8.896851599999996 S11.819611477357382 12.525465204507224 8.3785884 14.512140804507224 S3.9733511999999997 17.793703199999996 1.0895500834429005e-15 17.793703199999996 S-4.9375653226426115 16.498816404507224 -8.378588399999995 14.512140804507226 S-13.423123398600453 12.337874677357386 -15.409798998600452 8.896851600000003 S-16.757176799999996 3.973351200000001 -16.757176799999996 2.0521622930866283e-15 S-17.396474598600456 -5.455828522642609 -15.409798998600458 -8.896851599999993 S-11.819611477357387 -12.52546520450722 -8.378588400000005 -14.512140804507222 S-3.973351200000002 -17.793703199999996 -3.2686502503287013e-15 -17.793703199999996 S4.9375653226426035 -16.498816404507227 8.378588399999988 -14.512140804507231 S13.423123398600447 -12.337874677357387 15.409798998600449 -8.896851600000005 S16.757176799999996 -3.973351200000003 16.757176799999996 -4.104324586173257e-15" fill="#fdc823" stroke-width="0" transform="rotate(37.4851)">
    <animateTransform attributeName="transform" type="rotate" dur="6.666666666666666s" repeatCount="indefinite" values="0;60"></animateTransform>
  </path>
</g></g>
</svg>