<svg xmlns="http://www.w3.org/2000/svg" width="662" height="272" fill="none">
  <defs/>
  <g clip-path="url(#clip0)">
    <path fill="#ffc627" fill-rule="evenodd" d="M76 29c15 7 31 1 41-16-8-3-17-2-23 0-7 2-12 7-18 16zM59 58c18 2 27 3 40-19-3-1-4-1-6-1-17-1-25 6-34 20zM62 14c-3 5-4 8-5 13 0 4-1 8 2 10 2-1 5-3 8-5C78 24 82 8 78 0c-5 3-12 6-16 14zM43 174c-4 8-4 15-3 22 6-1 13-8 18-15 4-8 4-15 3-21-5 0-14 7-18 14zM25 127c0-8 3-12-1-22-2-7-8-13-16-18-1 7-3 12 1 22 2 7 6 12 16 18zM35 128c16-1 26-17 27-32-6-2-26 8-27 32zM38 39c-6 10-5 22-2 29 7-7 4 1 13-15 3-5 3-14 2-19-1-4 0-4-3-7-3 4-8 7-10 12zM35 146c-3 6-4 14-4 19 10-1 20-10 24-22 1-5 1-7 2-11-7-2-19 9-22 14zM9 195c3 3 7 18 26 22 3 1 5 0 9 2 1-6-8-21-25-25-4-1-7-2-10 1zM47 78l-6 12c19 1 33-13 34-25-9 0-22 3-28 13zM2 156c-1 6 6 20 15 25 5 4 8 6 15 6-1-15-8-21-20-28-4-2-6-2-10-3zM27 100c6-11 8-14 7-24 0-5-4-16-9-19-11 19-8 28 2 43zM24 228c8 9 13 19 34 17 2 0 4 0 6-2-4-7-7-9-14-13-8-5-20-5-26-2zM17 151c5 3 4 2 7 4 1-22-8-27-24-36-1 4 1 13 3 17 2 6 7 11 14 15zM47 255c7 12 28 21 41 15-1-10-29-21-41-15zM92 257c3-8 3-13 1-21-2-6-7-13-15-17-3 5-3 16-1 21 3 7 7 12 15 17zM58 193c-6 11-7 21 0 32 11-13 15-23 6-40-2 1-4 5-6 8zM547 16c8 14 26 20 38 13-4-8-9-14-18-17-5-1-16-1-21 2l1 2zM602 58c-6-11-9-14-17-18-5-2-16-3-22-1 6 10 10 14 17 18 5 2 16 4 22 1zM605 113c4 8 14 14 22 15 0-15-6-25-20-31-6-2-5-2-7-2 1 5 0 10 5 18zM604 181c5 7 13 14 19 15-1-9 1-13-5-23-3-6-13-13-18-14 1 7 0 14 4 22zM638 155c6-4 14-4 21-19 3-6 3-10 3-17-8 3-16 6-21 18-3 6-3 11-3 18zM637 127c16-9 22-25 17-41-11 7-18 18-18 29 0 5 1 8 1 12zM630 187c13-3 23-6 29-23 1-3 2-5 1-8-11 3-18 5-26 17-2 5-3 9-4 14zM614 54c3 6 5 10 12 14 1-2 2-4 2-6 0-3 1-5 1-8-1-18-11-20-15-27-4 4-5 20 0 27zM587 23c5 9 11 11 17 14 5-10-3-24-11-31-3-3-7-4-9-6-1 2-1 3-1 5v6c1 3 2 9 4 12zM599 244c11 5 30-2 39-16-12-6-38 4-39 16zM618 218c2 0 6 0 9-1 9-1 15-6 20-13 2-2 2-3 3-5 2-3 3-3 2-6-3 0-6 0-9 1-13 3-24 13-25 24zM635 99c5-3 8-14 9-19 0-9-1-13-7-23-5 7-8 11-9 19-1 9 2 15 7 23zM631 165c0-13-2-21-14-29-3-2-9-5-11-5 0 12 4 23 15 30 3 2 7 4 10 4zM590 74c1 2 6 7 7 8 5 6 17 10 24 8l-6-11c-5-10-21-16-29-14l4 9zM573 269c7 7 32 2 42-13-5-3-15-3-21-1-11 3-13 7-21 14zM570 258c16-10 19-24 14-39-8 5-12 10-15 17-2 6-1 14 1 22zM597 216c3 5 3 4 7 8 9-8 5-31-6-39-5 7-7 20-1 31z" clip-rule="evenodd"/>
    <path fill="#000" d="M166 51c10 0 19 1 27 5 7 3 13 8 17 14s6 14 6 22-2 16-6 22-10 11-17 15c-8 3-17 5-27 5h-16v27h-37V51h53zm-2 54c5 0 8-1 11-3 2-3 4-6 4-10s-2-7-4-9c-3-3-6-4-11-4h-14v26h14zM305 142h-42l-7 19h-38l48-110h37l48 110h-39l-7-19zm-10-27l-11-28-11 28h22zM398 163c-9 0-18-1-27-3-8-2-16-5-21-8l12-27c5 3 11 5 17 7 7 2 13 3 19 3 5 0 9-1 11-2s3-2 3-4-1-4-4-5-7-3-14-4c-9-2-16-4-21-6-6-2-11-5-15-10s-6-11-6-19c0-7 2-13 5-19 4-5 10-10 18-13s17-5 28-5c7 0 15 1 22 2 7 2 14 4 19 8l-11 27c-11-6-21-9-30-9-10 0-15 3-15 7 0 2 2 4 4 5 3 1 8 3 15 4 8 1 15 3 21 5s11 6 15 10c4 5 6 11 6 19 0 7-2 13-6 19s-9 10-17 13c-8 4-17 5-28 5zM501 163c-9 0-18-1-26-3-9-2-16-5-22-8l12-27c5 3 11 5 18 7 6 2 13 3 19 3 5 0 8-1 11-2 2-1 3-2 3-4s-2-4-4-5c-3-1-8-3-15-4-8-2-15-4-21-6s-11-5-15-10-6-11-6-19c0-7 2-13 6-19 4-5 10-10 17-13 8-3 17-5 28-5 8 0 15 1 23 2 7 2 13 4 19 8l-11 27c-11-6-21-9-31-9s-14 3-14 7c0 2 1 4 4 5s7 3 14 4c8 1 15 3 21 5s11 6 15 10c4 5 7 11 7 19 0 7-2 13-6 19s-10 10-18 13c-7 4-17 5-28 5zM152 209h16v23c-3 2-7 4-11 5s-9 2-13 2c-5 0-11-1-15-4-5-2-8-5-11-10-3-4-4-9-4-14 0-6 1-11 4-15s6-8 11-10c5-3 10-4 16-4 5 0 10 1 14 3s8 4 11 8l-12 10c-4-4-8-6-12-6s-8 1-10 4c-2 2-4 5-4 10 0 4 2 7 4 9 2 3 5 4 9 4 3 0 5 0 7-1v-14zM222 195v43h-17v-4c-2 1-3 3-5 3-2 1-5 2-7 2-5 0-10-2-13-5-3-4-5-9-5-15v-24h18v21c0 3 0 5 1 6s2 2 4 2 3-1 4-2c2-2 2-4 2-7v-20h18zM249 194c7 0 13 2 17 6 4 3 5 8 5 15v23h-16v-6c-2 4-6 7-12 7-3 0-6-1-8-2-3-1-5-3-6-5s-2-4-2-7c0-4 2-7 5-9s8-3 15-3h7c-1-4-3-5-8-5h-6c-2 1-4 2-5 3l-6-12 9-3c4-1 7-2 11-2zm-1 34c2 0 3 0 4-1s1-2 2-3v-3h-4c-4 0-6 1-6 4 0 1 1 1 1 2 1 1 2 1 3 1zM296 200c3-4 7-6 14-6v16h-4c-6 0-9 3-9 9v19h-18v-43h17v5zM333 194c8 0 13 2 17 6 4 3 6 8 6 15v23h-16v-6c-2 4-6 7-12 7-4 0-6-1-9-2-2-1-4-3-5-5s-2-4-2-7c0-4 2-7 5-9s8-3 14-3h7c0-4-3-5-8-5h-5c-2 1-4 2-5 3l-6-12c2-1 5-2 9-3 3-1 7-2 10-2zm0 34c1 0 2 0 3-1l3-3v-3h-5c-3 0-5 1-5 4 0 1 0 1 1 2s2 1 3 1zM393 194c5 0 10 2 13 5s5 8 5 15v24h-18v-21c0-5-2-8-5-8-2 0-4 1-5 2-1 2-2 4-2 7v20h-17v-43h16v4l6-3c2-1 5-2 7-2zM449 236c-2 2-6 3-10 3-6 0-11-2-14-5s-5-7-5-13v-11h-6v-12h6v-12h18v12h8v12h-8v11c0 1 0 2 1 3 0 1 1 1 2 1 2 0 3 0 4-1l4 12zM498 216v5h-30l3 3c2 1 4 2 6 2s3-1 4-1c2-1 3-1 5-3l9 10c-4 4-11 7-19 7-5 0-9-1-13-3s-7-5-9-8c-2-4-4-7-4-12 0-4 2-8 4-11s5-6 8-8c4-2 8-3 13-3 4 0 8 1 11 3 4 2 7 4 9 8 2 3 3 7 3 11zm-23-10c-2 0-4 1-5 2s-2 2-2 4h14c-1-2-2-3-3-4s-2-2-4-2zM549 216c0 1 0 2-1 5h-29l3 3c1 1 3 2 5 2s4-1 5-1c1-1 3-1 4-3l9 10c-4 4-10 7-18 7-5 0-10-1-14-3s-7-5-9-8c-2-4-3-7-3-12 0-4 1-8 3-11s5-6 9-8 8-3 12-3c5 0 8 1 12 3s6 4 8 8c3 3 4 7 4 11zm-24-10c-1 0-3 1-4 2s-2 2-2 4h13c0-2-1-3-2-4s-3-2-5-2z"/>
  </g>
  <defs>
    <clipPath id="clip0">
      <path fill="#fff" d="M0 0h662v272H0z"/>
    </clipPath>
  </defs>
</svg>